<svg xmlns="http://www.w3.org/2000/svg" viewBox="0 0 1600 900">
  <defs>
    <linearGradient id="sidebar" x1="0" y1="0" x2="0" y2="1">
      <stop offset="0%" stop-color="#102943"/>
      <stop offset="100%" stop-color="#0a2038"/>
    </linearGradient>

    <linearGradient id="sky" x1="0" y1="0" x2="0" y2="1">
      <stop offset="0%" stop-color="#e6edef"/>
      <stop offset="42%" stop-color="#91aabb"/>
      <stop offset="100%" stop-color="#0a2843"/>
    </linearGradient>

    <linearGradient id="shade" x1="0" y1="0" x2="0" y2="1">
      <stop offset="0%" stop-color="#071d34" stop-opacity="0"/>
      <stop offset="100%" stop-color="#071d34" stop-opacity="0.9"/>
    </linearGradient>

    <!-- Затемнение снизу всей карточки -->
    <linearGradient id="fadeToGitHub" x1="0" y1="0" x2="0" y2="1">
      <stop offset="0%" stop-color="#0d1117" stop-opacity="0"/>
      <stop offset="45%" stop-color="#0d1117" stop-opacity="0.02"/>
      <stop offset="66%" stop-color="#0d1117" stop-opacity="0.32"/>
      <stop offset="84%" stop-color="#0d1117" stop-opacity="0.78"/>
      <stop offset="100%" stop-color="#0d1117" stop-opacity="1"/>
    </linearGradient>
  </defs>

  <!-- Внешний голубой фон -->
  <rect width="1600" height="900" fill="#159fba"/>

  <!-- Тень -->
  <rect x="93" y="100" width="1460" height="750" fill="#07566b" opacity="0.28"/>

  <!-- Основной блок: БЕЛОЙ РАМКИ БОЛЬШЕ НЕТ -->
  <rect x="70" y="75" width="1460" height="750" fill="#0d1117"/>

  <!-- Левая тёмная панель -->
  <rect x="70" y="75" width="500" height="750" fill="url(#sidebar)"/>

  <!-- Правая часть с пейзажем -->
  <rect x="570" y="75" width="960" height="750" fill="url(#sky)"/>

  <!-- Облака -->
  <path
    d="M570 245 C695 165 770 228 885 168 C990 110 1090 214 1210 150 C1325 86 1430 164 1530 112 L1530 75 L570 75 Z"
    fill="#f4f7f7"
    opacity="0.72"
  />

  <!-- Дальние горы -->
  <path
    d="M570 463 L676 385 L742 415 L821 300 L891 389 L968 283 L1042 385 L1134 250 L1205 375 L1283 296 L1348 383 L1438 265 L1530 365 L1530 568 L570 568 Z"
    fill="#d7e4e8"
  />

  <!-- Тени на горах -->
  <path
    d="M570 463 L676 385 L742 415 L782 382 L821 300 L891 389 L931 356 L968 283 L1042 385 L1086 351 L1134 250 L1205 375 L1247 343 L1283 296 L1348 383 L1392 339 L1438 265 L1530 365 L1530 575 L570 575 Z"
    fill="#7192a6"
    opacity="0.68"
  />

  <!-- Передние горы -->
  <path
    d="M570 590 L665 484 L740 526 L828 408 L908 505 L990 413 L1070 526 L1150 448 L1240 545 L1330 413 L1420 520 L1530 447 L1530 825 L570 825 Z"
    fill="#173c5a"
  />

  <!-- Лес -->
  <path
    d="M570 647 C690 590 790 637 904 577 C1000 526 1094 619 1200 559 C1300 504 1405 590 1530 528 L1530 825 L570 825 Z"
    fill="#071e35"
    opacity="0.88"
  />

  <!-- Затемнение пейзажа -->
  <rect x="570" y="75" width="960" height="750" fill="url(#shade)"/>

  <!-- Плавное затемнение к низу -->
  <rect x="70" y="75" width="1460" height="750" fill="url(#fadeToGitHub)"/>

  <!-- Логотип -->
  <text
    x="153"
    y="172"
    fill="#ffffff"
    font-family="Arial, Helvetica, sans-serif"
    font-size="26"
    font-weight="700"
  >SELF-HOSTED VPN</text>

  <!-- Верхнее меню -->
  <g
    fill="#0a294e"
    font-family="Arial, Helvetica, sans-serif"
    font-size="15"
    font-weight="700"
  >
    <text x="880" y="172">OVERVIEW</text>
    <text x="1036" y="172">GUIDES</text>
    <text x="1151" y="172">STACK</text>
    <text x="1264" y="172">GITHUB</text>
  </g>

  <rect x="875" y="186" width="82" height="3" fill="#0a294e"/>

  <!-- Вертикальная линия -->
  <rect x="170" y="416" width="5" height="296" fill="#ffffff"/>

  <!-- Главный текст -->
  <text
    x="231"
    y="510"
    fill="#ffffff"
    font-family="Arial, Helvetica, sans-serif"
    font-size="101"
    font-weight="800"
    letter-spacing="-4"
  >SELF-HOSTED</text>

  <!-- Контурный текст -->
  <text
    x="231"
    y="610"
    fill="none"
    stroke="#ffffff"
    stroke-width="1.5"
    font-family="Arial, Helvetica, sans-serif"
    font-size="101"
    font-weight="800"
    letter-spacing="-4"
  >VPN</text>

  <!-- Описание -->
  <text
    x="231"
    y="654"
    fill="#ffffff"
    font-family="Georgia, serif"
    font-size="18"
    font-style="italic"
  >Build your own private infrastructure.</text>

  <text
    x="231"
    y="680"
    fill="#ffffff"
    font-family="Georgia, serif"
    font-size="18"
    font-style="italic"
  >Linux, VLESS + Reality, Xray Core and 3x-ui.</text>

  <!-- Кнопка -->
  <rect x="231" y="716" width="144" height="38" fill="#159fba"/>

  <text
    x="303"
    y="741"
    text-anchor="middle"
    fill="#08213b"
    font-family="Arial, Helvetica, sans-serif"
    font-size="14"
    font-weight="700"
  >READ GUIDE</text>
</svg>
